<svg width="28" height="28" viewBox="0 0 28 28" fill="none" xmlns="http://www.w3.org/2000/svg">
<path d="M13.915 27.283C21.1416 27.283 27 21.4247 27 14.198C27 6.97136 21.1416 1.11301 13.915 1.11301C6.68834 1.11301 0.829987 6.97136 0.829987 14.198C0.829987 21.4247 6.68834 27.283 13.915 27.283Z" fill="#DBEFE6" stroke="#401D5A" stroke-miterlimit="10"/>
<path d="M13.7969 17.5029C13.431 17.5029 13.1399 17.3865 12.9237 17.1536C12.7242 16.9041 12.6244 16.5715 12.6244 16.1557C12.6244 15.4406 12.7574 14.7753 13.0235 14.1599C13.2896 13.5445 13.747 12.8876 14.3956 12.1891C14.8613 11.6901 15.1856 11.266 15.3686 10.9167C15.5515 10.5508 15.643 10.1766 15.643 9.79409C15.643 9.3284 15.4684 8.9625 15.1191 8.69639C14.7865 8.43029 14.3042 8.29723 13.6722 8.29723C13.0734 8.29723 12.5163 8.37208 12.0007 8.52176C11.5017 8.67145 11.0111 8.88766 10.5288 9.1704C9.97992 9.45314 9.51423 9.52798 9.1317 9.39493C8.74917 9.24524 8.47475 8.97913 8.30843 8.5966C8.15875 8.21407 8.15875 7.8066 8.30843 7.37417C8.47475 6.94175 8.82401 6.57585 9.35623 6.27648C10.0381 5.89395 10.7866 5.60289 11.6015 5.40331C12.4331 5.1871 13.2148 5.07899 13.9466 5.07899C15.0443 5.07899 16.0089 5.26194 16.8405 5.62784C17.6721 5.97711 18.3124 6.47606 18.7615 7.1247C19.2272 7.7567 19.46 8.49681 19.46 9.34503C19.46 10.1101 19.2854 10.8169 18.9361 11.4656C18.6035 12.1142 18.0047 12.7961 17.1399 13.5113C16.3582 14.1599 15.826 14.7171 15.5432 15.1828C15.2605 15.6318 15.0775 16.1141 14.9944 16.6297C14.9445 16.8958 14.8198 17.112 14.6202 17.2784C14.4372 17.428 14.1628 17.5029 13.7969 17.5029ZM13.747 23.0662C13.0817 23.0662 12.5495 22.8666 12.1504 22.4675C11.7678 22.0683 11.5766 21.5527 11.5766 20.9207C11.5766 20.3053 11.7678 19.8064 12.1504 19.4239C12.5495 19.0247 13.0817 18.8251 13.747 18.8251C14.4123 18.8251 14.9279 19.0247 15.2938 19.4239C15.6763 19.8064 15.8675 20.3053 15.8675 20.9207C15.8675 21.5527 15.6763 22.0683 15.2938 22.4675C14.9279 22.8666 14.4123 23.0662 13.747 23.0662Z" fill="#401D5A"/>
</svg>
