<?xml version="1.0" encoding="utf-8"?>
<!-- Generator: Adobe Illustrator 15.0.0, SVG Export Plug-In  -->
<!DOCTYPE svg PUBLIC "-//W3C//DTD SVG 1.1//EN" "http://www.w3.org/Graphics/SVG/1.1/DTD/svg11.dtd" [
	<!ENTITY ns_flows "http://ns.adobe.com/Flows/1.0/">
]>
<svg version="1.1"
	 xmlns="http://www.w3.org/2000/svg" xmlns:xlink="http://www.w3.org/1999/xlink" xmlns:a="http://ns.adobe.com/AdobeSVGViewerExtensions/3.0/"
	 x="0px" y="0px" width="1716px" height="2517px" viewBox="0 164.394 1716 2517"
	 overflow="visible" enable-background="new 0 164.394 1716 2517" xml:space="preserve">
<defs>
</defs>
<rect y="164.394" fill="#D7FFEE" width="1716" height="2517"/>
<polyline opacity="0.49" fill="#85F0AB" points="165.247,2178.493 134.115,2474.456 204.57,2479.979 "/>
<ellipse opacity="0.07" fill="#921BEF" cx="1254.058" cy="119.197" rx="123.942" ry="119.197"/>
<ellipse opacity="0.06" fill="#921BEF" cx="1454.754" cy="2573.667" rx="77.639" ry="74.666"/>
<g opacity="0.08">
	<g>
		<path fill="#921BEF" d="M214.496,1080.151c11.888-14.717,22.99-30.734,29.145-48.78c2.757-8.087,3.832-16.431,4.092-24.955
			c1.474-48.437,1.061-96.955,1.113-145.405c0.047-43.678-0.149-87.359-0.753-131.033c-0.128-9.259,0.134-19.248-1.611-28.489
			c-5.774-30.568-41.544-42.794-67.866-48.804c-22.639-5.169-45.992-7.103-69.15-7.987c-0.909-0.035-1.5,142.235-1.5,150
			c0,35.355,0.086,70.712,0.439,106.066c-0.031-3.148,0.062,43.896,1.061,43.934c33.67,1.286,69.42,4.221,100.597,18.075
			c18.801,8.354,35.547,22.799,37.175,44.49c-0.133-1.786-0.266-3.572-0.398-5.358c0.297,4.99,0.076,11.412-0.249-12.131
			c-0.247-43.173-0.495-86.347-0.743-129.521c0,0.253,0,0.505,0,0.758c0.247-43.173,0.494-86.347,0.742-129.521
			c0.38-23.999,0.566-16.458,0.186-11.265c0.133-1.786,0.266-3.572,0.398-5.358c-2.146,24.563-17.658,46.69-32.676,65.283
			c-0.133,1.786-0.266,3.572-0.398,5.358c-0.359,12.856-0.58,25.715-0.662,38.576c-0.354,35.354-0.439,70.711-0.439,106.066
			s0.086,70.712,0.439,106.066c0.102,7.818,0.201,15.636,0.304,23.455C213.646,1066.515,213.898,1073.342,214.496,1080.151
			L214.496,1080.151z"/>
	</g>
</g>
<g opacity="0.08">
	<g>
		<path fill="#921BEF" d="M1635.855,1835.244c11.367,4.739,22.847,9.838,33.016,16.868c4.734,3.274,11.194,8.102,11.664,14.406
			c-0.133-1.786-0.266-3.572-0.398-5.358c0.004,0.094,0.008,0.188,0.012,0.281c-0.35-34.922-0.699-69.844-1.049-104.766
			c0.001,0.094,0.001,0.187,0.002,0.28c0.349-61.506,0.697-123.012,1.047-184.518c-0.003,0.186-0.013,0.37-0.029,0.556
			c0.133-1.786,0.266-3.572,0.398-5.358c-0.711,6.555-8.535,10.003-13.827,12.134c-12.138,4.886-25.517,6.925-38.394,8.744
			c-48.453,6.846-98.004,7.164-146.842,7.32c-2.578,0.008-5.158,0.01-7.738,0.011c-2.305,0.001-2.234,300.001,0,300
			c50.092-0.018,100.713-0.385,150.475-6.778c13.557-1.741,27.395-3.872,40.32-8.473c5.684-2.023,14.107-5.286,15.826-11.862
			c0.566-2.17,0.443-4.549,0.599-6.731c0.546-7.666,0.622-33.941,0.671-38.854c0.486-48.645,0.502-97.295,0.387-145.941
			c-0.053-22.07-0.166-44.387-0.387-66.471c-0.146-14.709,0.024-29.527-1.072-44.215c-0.051-0.687-0.174-1.346-0.361-2.007
			c-0.996-3.507-3.859-6.357-6.508-8.693c-10.658-9.396-24.871-15.179-37.811-20.574c-0.133,1.786-0.266,3.572-0.398,5.358
			c-0.359,12.855-0.58,25.715-0.662,38.575c-0.354,35.354-0.439,70.711-0.439,106.066s0.086,70.712,0.439,106.066
			c0.102,7.817,0.201,15.636,0.303,23.454C1635.006,1821.608,1635.258,1828.435,1635.855,1835.244L1635.855,1835.244z"/>
	</g>
</g>
<g opacity="0.07">
	<g>
		<path fill="#921BEF" d="M234.258,2194.282c7.201,9.853,14.287,21.123,15.364,33.583c-0.133-1.786-0.267-3.571-0.399-5.357
			c0.039,0.525,0.064,1.052,0.076,1.579c-0.299-22.979-0.598-45.956-0.896-68.934c0.002,0.258,0.004,0.517,0.006,0.775
			c0.178-68.409,0.357-136.819,0.537-205.229c0.103-4.532,0.205-9.064,0.307-13.598c0.133-1.785,0.266-3.571,0.398-5.357
			c-0.885,11.473-9.234,18.774-19.246,23.15c-16.056,7.02-34.939,7.669-52.172,7.717c-2.549,0.007-1.99,300.006,0,300
			c14.915-0.042,30.082-0.889,44.498-4.999c9.192-2.621,18.738-7.153,23.859-15.608c2.863-4.726,3.199-10.233,3.459-15.618
			c0.608-12.583,0.592-27.87,0.715-40.1c0.486-48.645,0.52-97.296,0.386-145.942c-0.083-30.139-0.181-60.286-0.696-90.42
			c-0.137-8.064-0.227-15.068-0.9-22.862c-1.043-12.057-8.357-23.288-15.295-32.78c-0.133,1.786-0.266,3.572-0.398,5.358
			c-0.359,12.855-0.58,25.715-0.662,38.575c-0.354,35.354-0.439,70.711-0.439,106.066s0.086,70.713,0.439,106.066
			c0.102,7.817,0.201,15.636,0.305,23.454C233.408,2180.646,233.66,2187.473,234.258,2194.282L234.258,2194.282z"/>
	</g>
</g>
<path opacity="0.21" fill="#921BEF" stroke="#921BEF" stroke-width="6" stroke-miterlimit="10" d="M106.219,1476.227
	c-0.397-0.122-0.791-0.24-1.18-0.36c-35.621-10.95-31.951-19.624-35.611-5.471c-3.7,14.308-19.725,27.533,2.719-5.614
	c22.442-33.146-23.42,0.33-0.395,10.725c23.028,10.395,39.627-21.14,34.069,0.599"/>
<rect x="72" y="297.394" display="none" fill="#D7FFEE" width="1727" height="1616"/>
<rect x="493.287" y="2538.299" transform="matrix(0.0162 -0.9999 0.9999 0.0162 -1999.0706 3053.6978)" fill="#921BEF" width="117.978" height="8.854"/>
<rect x="265.79" y="1186.567" transform="matrix(0.0162 -0.9999 0.9999 0.0162 -919.2726 1447.6542)" fill="#921BEF" width="20.473" height="8.823"/>
<rect x="116.191" y="1994.121" transform="matrix(0.0162 -0.9999 0.9999 0.0162 -1871.9906 2105.3667)" fill="#85F0AB" width="35.414" height="19.719"/>
<circle fill="#401159" cx="1595.374" cy="939.02" r="8.374"/>
<polygon fill="#401159" points="12.511,578.693 2.782,576.038 0.127,566.31 7.198,559.238 16.926,561.894 19.582,571.622 "/>
<rect x="1534.952" y="2326.97" transform="matrix(0.5 -0.866 0.866 0.5 -1250.2539 2502.2205)" fill="#401159" width="13.75" height="13.75"/>
<line opacity="0.26" fill="#401159" stroke="#F9EFD2" stroke-width="3" stroke-miterlimit="10" x1="72" y1="1879.894" x2="2081" y2="1879.894"/>
</svg>
