<?xml version="1.0" encoding="UTF-8"?>
<svg width="1430px" height="1073px" viewBox="0 0 1430 1073" version="1.1" xmlns="http://www.w3.org/2000/svg" xmlns:xlink="http://www.w3.org/1999/xlink">
    <!-- Generator: Sketch 43.2 (39069) - http://www.bohemiancoding.com/sketch -->
    <title>ornaments-01</title>
    <desc>Created with Sketch.</desc>
    <defs>
        <polygon id="path-1" points="0.0837890625 1072.91617 0.0837890625 0 1430 0 1430 1072.91617"></polygon>
    </defs>
    <g id="Page-1" stroke="none" stroke-width="1" fill="none" fill-rule="evenodd">
        <g id="ornaments-01">
            <path d="M225.798955,404.333784 C232.211611,404.333784 225.595068,392.164734 224.445762,390.233893 C221.655586,385.545107 215.029268,375.267779 208.507686,375.267779 C202.095029,375.267779 208.711572,387.436828 209.860879,389.367669 C212.651055,394.056456 219.275977,404.333784 225.798955,404.333784" id="Fill-1" fill="#91C998"></path>
            <path d="M279.296875,407.70088 C289.816592,407.70088 299.836367,412.357533 309.856143,411.425643 C318.371904,410.493754 324.38377,404.908007 332.398193,401.183243 C341.415293,395.597496 352.436348,397.459878 360.953506,390.942241 C368.467988,385.355096 370.471943,368.596457 376.483809,362.07882 C379.489043,358.354057 382.995615,360.216439 386.502188,358.354057 C394.518008,355.561184 402.03249,347.182562 410.046914,343.457799 C418.062734,338.802544 428.08251,330.422526 437.099609,330.422526 L279.296875,407.70088" id="Fill-2" fill="#DAEDE0"></path>
            <path d="M379.878662,426.82487 C379.878662,413.951664 380.134219,401.051913 379.861904,388.181501 C379.709687,381.050522 377.066143,372.984859 383.568174,368.034809 C396.041572,358.539876 429.600488,360.521014 431.174326,380.055762 C431.171533,377.770048 431.167344,375.482937 431.165947,373.195827 C431.048643,374.306549 430.931338,375.417272 430.81543,376.527995 C430.443965,378.803928 431.184102,381.254504 430.81543,383.513672 C432.073662,375.784719 431.63377,367.735822 425.517168,362.193385 C416.41209,353.946095 400.170977,355.049832 389.300742,358.3331 C378.575742,361.574454 378.972344,369.617763 379.065908,379.009307 C379.225107,394.945034 379.808838,410.863995 379.808838,426.82487 C379.808838,430.775969 379.878662,430.775969 379.878662,426.82487" id="Fill-3" fill="#91C998"></path>
            <path d="M356.103516,414.949219 C384.033203,452.671875 446.875,425.427734 416.850586,380.020833 C411.264648,373.035156 382.636719,344.39388 370.068359,349.283854 C359.594727,354.173828 369.370117,363.953776 373.55957,368.84375 C377.749023,375.829427 386.12793,385.609375 383.334961,394.690755 C379.145508,407.264974 358.896484,406.566406 347.724609,406.566406 C336.552734,406.566406 323.286133,399.580729 312.8125,400.977865 C298.149414,403.073568 286.977539,422.633464 275.107422,430.317708 L356.103516,414.949219" id="Fill-4" fill="#DAEDE0"></path>
            <g id="Group-8">
                <mask id="mask-2" fill="white">
                    <use xlink:href="#path-1"></use>
                </mask>
                <g id="Clip-6"></g>
                <polyline id="Fill-5" fill="#DAEDE0" mask="url(#mask-2)" points="549.652061 934.789776 1002.08926 855.157249 851.277324 264.198307 549.652061 934.789776"></polyline>
                <path d="M-86.5820313,1082.77995 L1460.72266,1082.77995 L1460.72266,-48.8997396 L-86.5820313,-48.8997396 L-86.5820313,1082.77995 Z M222.191836,803.6281 C204.554238,826.856874 196.826094,856.469159 202.240264,885.529576 C208.313574,918.126142 229.654648,945.923548 256.771582,964.112854 C267.285713,969.496017 277.80124,974.880577 288.315371,980.265137 C306.98916,987.154411 326.108428,990.601145 345.67457,990.601145 C351.065,990.601145 356.488945,990.338483 361.947803,989.815954 C373.48835,987.291331 385.0275,984.768104 396.568047,982.244878 C417.983135,974.971391 436.367852,963.048237 451.722197,946.471225 C473.388652,922.381816 483.404238,889.658111 477.432871,857.606427 C474.458359,841.639964 467.820869,826.827534 458.636191,813.729389 L409.445029,506.365186 L361.695039,754.887634 C352.564824,753.320048 343.334062,752.536255 333.998564,752.536255 C328.608135,752.536255 323.184189,752.79752 317.725332,753.320048 C313.204912,754.30922 308.683096,755.298392 304.162676,756.287564 L275.382529,668.539077 L222.191836,803.6281 L222.191836,803.6281 Z M851.277324,264.198307 L549.652061,934.789776 L921.054063,869.420604 L926.054873,885.194263 L936.028564,869.48627 L937.38874,866.545299 L985.997568,857.989242 L995.852559,888.504077 L1006.0846,886.190421 L1016.21889,878.71854 L1026.3029,866.450294 L1036.49305,876.326645 L1046.51003,850.514568 L1056.79374,883.79573 L1066.82329,854.388824 L1077.05394,889.279487 L1087.14214,866.990986 L1097.2862,848.333639 L1107.43585,859.785958 L1117.64555,843.873983 L1127.82452,845.004266 L1137.73258,876.738799 L1147.67555,886.81494 L1158.36982,851.278801 L1167.6746,882.501983 L1179.22492,847.306745 L1195.1239,838.0619 L999.211104,843.880969 L851.277324,264.198307 L851.277324,264.198307 Z M1129.73072,437.183232 L1094.25304,687.509382 L1274.38975,697.987897 L1232.49382,459.589092 C1277.54301,446.92406 1310.45256,406.882159 1310.45256,359.44522 C1310.45256,301.831547 1261.90937,255.126707 1202.03091,255.126707 C1200.20291,255.126707 1198.38888,255.170018 1196.58322,255.255243 L1173.84846,125.888887 L1154.00721,265.891635 C1118.21671,282.931099 1093.60926,318.42253 1093.60926,359.44522 C1093.60926,390.330296 1107.56293,418.082993 1129.73072,437.183232 L1129.73072,437.183232 Z M356.103516,414.949219 C365.303555,427.375341 378.292256,432.751518 390.501719,432.751518 C400.853857,432.751518 410.644609,428.888439 417.093574,422.177997 C433.971484,427.461964 451.984736,430.317708 470.69623,430.317708 C566.286982,430.317708 643.779297,355.75818 643.779297,263.783358 C643.779297,171.809934 566.286982,97.2490078 470.69623,97.2490078 C375.105479,97.2490078 297.613164,171.809934 297.613164,263.783358 C297.613164,307.216107 314.889072,346.760628 343.195811,376.409238 L279.296875,407.70088 C285.110439,407.70088 290.768994,409.123164 296.360518,410.238078 C288.9396,417.028156 282.1471,425.760253 275.107422,430.317708 L356.103516,414.949219 L356.103516,414.949219 Z M208.507686,375.267779 C202.095029,375.267779 208.711572,387.436828 209.860879,389.367669 C212.651055,394.056456 219.275977,404.333784 225.798955,404.333784 C232.211611,404.333784 225.595068,392.164734 224.445762,390.233893 C221.655586,385.545107 215.029268,375.267779 208.507686,375.267779 L208.507686,375.267779 Z M351.324746,406.573392 C350.049756,406.573392 348.841797,406.566406 347.724609,406.566406 C341.799326,406.566406 335.284727,404.600637 328.909775,402.964591 C330.038135,402.342866 331.19582,401.743495 332.398193,401.183243 C341.041035,395.829421 351.523047,397.31737 359.878213,391.71346 C364.888799,395.735812 370.133994,399.488518 375.60123,402.953414 C368.678857,406.328893 358.85459,406.573392 351.324746,406.573392 L351.324746,406.573392 Z" id="Fill-7" fill="#F6FAF6" mask="url(#mask-2)"></path>
            </g>
            <path d="M225.798955,404.333784 C219.275977,404.333784 212.651055,394.056456 209.860879,389.367669 C208.711572,387.436828 202.095029,375.267779 208.507686,375.267779 C215.029268,375.267779 221.655586,385.545107 224.445762,390.233893 C225.595068,392.164734 232.211611,404.333784 225.798955,404.333784" id="Fill-9" fill="#A4D2AB"></path>
            <path d="M296.360518,410.238078 C290.768994,409.123164 285.110439,407.70088 279.296875,407.70088 L343.195811,376.409238 C348.394922,381.853875 353.973877,386.972979 359.878213,391.71346 C351.523047,397.31737 341.041035,395.829421 332.398193,401.183243 C331.19582,401.743495 330.038135,402.342866 328.909775,402.964591 C324.358633,401.795189 319.878711,400.793443 315.735342,400.793443 C314.739648,400.793443 313.764902,400.850725 312.8125,400.977865 C306.845322,401.831514 301.454893,405.577234 296.360518,410.238078" id="Fill-10" fill="#DAEDE0"></path>
            <path d="M390.501719,432.751518 C378.292256,432.751518 365.303555,427.375341 356.103516,414.949219 L275.107422,430.317708 C282.1471,425.760253 288.9396,417.028156 296.360518,410.238078 C301.454893,405.577234 306.845322,401.831514 312.8125,400.977865 C313.764902,400.850725 314.739648,400.793443 315.735342,400.793443 C319.878711,400.793443 324.358633,401.795189 328.909775,402.964591 C335.284727,404.600637 341.799326,406.566406 347.724609,406.566406 C348.841797,406.566406 350.049756,406.573392 351.324746,406.573392 C358.85459,406.573392 368.678857,406.328893 375.60123,402.953414 C388.353926,411.035842 402.288047,417.542302 417.093574,422.177997 C410.644609,428.888439 400.853857,432.751518 390.501719,432.751518" id="Fill-11" fill="#DAEDE0"></path>
            <path d="M549.652061,934.789776 L851.277324,264.198307 L999.211104,843.880969 L980.568037,844.435632 L975.928916,832.909264 L971.377773,844.708073 L957.820703,845.111845 L955.98293,842.024176 L950.373252,845.332592 L911.277275,846.493612 L906.103301,838.697596 L896.12542,842.893194 L886.146143,833.009858 L878.436152,847.47021 L859.696729,848.02627 L856.202725,840.054215 L852.225537,848.248414 L841.73375,848.559975 L836.241377,833.792254 L829.115117,848.934408 L778.267725,850.446108 L776.364316,846.58722 L773.373047,850.59141 L739.439873,851.598745 L736.443018,846.718551 L731.577666,851.832066 L709.879092,852.477543 L706.500996,851.013345 L705.552783,852.606079 L652.08,854.194622 L646.61835,842.130358 L643.786279,854.440518 L616.680518,855.246665 L626.659795,887.941031 L636.639072,885.518398 L643.786279,854.440518 L652.08,854.194622 L656.597627,864.174361 L666.578301,867.723085 L676.558975,886.096813 L686.539648,889.821576 L696.520322,867.784559 L705.552783,852.606079 L709.879092,852.477543 L716.480273,855.336082 L726.462344,857.209641 L731.577666,851.832066 L739.439873,851.598745 L746.423691,862.971427 L756.402969,861.117428 L766.385039,859.94104 L773.373047,850.59141 L778.267725,850.446108 L786.34499,866.821932 L796.324268,859.112539 L806.304941,885.051755 L816.282822,874.334329 L826.263496,854.993784 L829.115117,848.934408 L841.73375,848.559975 L846.219258,860.622842 L852.225537,848.248414 L859.696729,848.02627 L866.184795,862.826125 L876.165469,851.727281 L878.436152,847.47021 L911.277275,846.493612 L916.078389,853.730773 L921.054062,869.420604 L549.652061,934.789776 M937.38874,866.545299 L946.006445,847.90891 L950.373252,845.332592 L957.820703,845.111845 L965.953828,858.768844 L971.377773,844.708073 L980.568037,844.435632 L985.894229,857.672092 L985.997568,857.989242 L937.38874,866.545299" id="Fill-12" fill="#DAEDE0"></path>
            <polyline id="Fill-13" fill="#DAEDE0" points="1173.84846 125.888887 1094.25304 687.509382 1274.38975 697.987897 1173.84846 125.888887"></polyline>
            <path d="M683.708975,523.023232 C683.708975,557.16503 653.699922,584.84368 616.680518,584.84368 C579.661113,584.84368 549.652061,557.16503 549.652061,523.023232 C549.652061,488.880036 579.661113,461.201387 616.680518,461.201387 C653.699922,461.201387 683.708975,488.880036 683.708975,523.023232" id="Fill-14" fill="#DAEDE0"></path>
            <path d="M222.191836,803.6281 L275.382529,668.539077 L304.162676,756.287564 C297.143945,757.823016 290.125215,759.35707 283.105088,760.891125 C261.69,768.164612 243.305283,780.089163 227.950937,796.664777 C225.928828,798.912768 224.008662,801.237602 222.191836,803.6281" id="Fill-15" fill="#BFDEC0"></path>
            <path d="M458.636191,813.729389 C449.068877,800.086362 436.736523,788.304319 422.901553,779.024546 C412.387422,773.639986 401.871895,768.255426 391.357764,762.870866 C381.592148,759.269051 371.703643,756.607508 361.695039,754.887634 L409.445029,506.365186 L458.636191,813.729389" id="Fill-16" fill="#BFDEC0"></path>
            <path d="M470.69623,430.317708 C451.984736,430.317708 433.971484,427.461964 417.093574,422.177997 C426.127432,412.776673 428.599209,397.788204 416.850586,380.020833 C414.37043,376.919193 407.346113,369.547906 399.203213,362.736871 C400.70583,362.590172 402.236377,362.514727 403.77251,362.514727 C415.757139,362.514727 428.110439,367.070785 430.726055,377.342525 C430.604561,379.380945 431.139414,381.521357 430.81543,383.513672 C431.362852,380.150767 431.589082,376.726388 431.165947,373.475254 L431.165947,373.195827 C431.160361,373.247521 431.154775,373.299215 431.149189,373.350909 C430.583613,369.177665 428.937158,365.292232 425.517168,362.193385 C420.399053,357.55769 413.025615,355.875539 405.620059,355.875539 C401.081484,355.875539 396.531738,356.507044 392.480537,357.475259 C391.938701,357.084061 391.398262,356.699849 390.856426,356.32402 C396.080674,353.338341 401.165273,348.71522 406.403486,345.455703 L437.099609,330.422526 C428.08251,330.422526 418.062734,338.802544 410.046914,343.457799 C408.822197,344.026434 407.608652,344.704044 406.403486,345.455703 L388.036924,354.449064 C382.667441,351.044245 377.458555,348.725 373.280273,348.725 C372.123984,348.725 371.048691,348.902436 370.068359,349.283854 C362.591582,352.775296 365.434824,358.757829 369.196953,363.675746 L343.195811,376.409238 C314.889072,346.760628 297.613164,307.216107 297.613164,263.783358 C297.613164,171.809934 375.105479,97.2490078 470.69623,97.2490078 C566.286982,97.2490078 643.779297,171.809934 643.779297,263.783358 C643.779297,355.75818 566.286982,430.317708 470.69623,430.317708 M375.60123,402.953414 C370.133994,399.488518 364.888799,395.735812 359.878213,391.71346 C360.241299,391.470358 360.598799,391.213285 360.953506,390.942241 C366.725176,386.651638 369.24583,375.770747 372.827813,368.001277 C373.086162,368.296073 373.330547,368.576897 373.55957,368.84375 C375.081738,371.382345 377.156914,374.288387 379.04915,377.397013 C379.05334,377.929322 379.060322,378.467219 379.065908,379.009307 C379.137129,386.161243 379.294932,393.310385 379.445752,400.459527 C378.315996,401.438919 377.020059,402.261832 375.60123,402.953414 M379.986191,399.967736 C379.977813,396.037594 379.944297,392.107452 379.861904,388.181501 C379.787891,384.741754 379.135732,381.082656 379.20835,377.662469 C382.450986,383.040043 385.084756,389.003017 383.334961,394.690755 C382.631133,396.801827 381.47624,398.538466 379.986191,399.967736" id="Fill-17" fill="#F0F4F7"></path>
            <path d="M359.878213,391.71346 C353.973877,386.972979 348.394922,381.853875 343.195811,376.409238 L369.196953,363.675746 C370.41748,365.269878 371.734365,366.752238 372.827812,368.001277 C369.24583,375.770747 366.725176,386.651638 360.953506,390.942241 C360.598799,391.213285 360.241299,391.470358 359.878213,391.71346 M390.856426,356.32402 C389.916592,355.67016 388.972568,355.042846 388.036924,354.449064 L406.403486,345.455703 C401.165273,348.71522 396.080674,353.338341 390.856426,356.32402 M406.403486,345.455703 C407.608652,344.704044 408.822197,344.026434 410.046914,343.457799 C418.062734,338.802544 428.08251,330.422526 437.099609,330.422526 L406.403486,345.455703" id="Fill-18" fill="#D3EBE5"></path>
            <path d="M379.445752,400.459527 C379.294932,393.310385 379.137129,386.161243 379.065908,379.009307 C379.060322,378.467219 379.05334,377.929322 379.04915,377.397013 C379.102217,377.485033 379.155283,377.573052 379.20835,377.662469 C379.135732,381.082656 379.787891,384.741754 379.861904,388.181501 C379.944297,392.107452 379.977812,396.037594 379.986191,399.967736 C379.810234,400.136789 379.630088,400.300254 379.445752,400.459527 M430.81543,383.513672 C431.139414,381.521357 430.604561,379.380945 430.726055,377.342525 C428.110439,367.070785 415.757139,362.514727 403.77251,362.514727 C402.236377,362.514727 400.70583,362.590172 399.203213,362.736871 C397.020508,360.912212 394.758203,359.126673 392.480537,357.475259 C396.531738,356.507044 401.081484,355.875539 405.620059,355.875539 C413.025615,355.875539 420.399053,357.55769 425.517168,362.193385 C428.937158,365.292232 430.583613,369.177665 431.149189,373.350909 C431.154775,373.299215 431.160361,373.247521 431.165947,373.195827 L431.165947,373.475254 C431.589082,376.726388 431.362852,380.150767 430.81543,383.513672" id="Fill-19" fill="#A0D2B3"></path>
            <path d="M417.093574,422.177997 C402.288047,417.542302 388.353926,411.035842 375.60123,402.953414 C377.020059,402.261832 378.315996,401.438919 379.445752,400.459527 C379.630088,400.300254 379.810234,400.136789 379.986191,399.967736 C381.47624,398.538466 382.631133,396.801827 383.334961,394.690755 C385.084756,389.003017 382.450986,383.040043 379.20835,377.662469 C379.155283,377.573052 379.102217,377.485033 379.04915,377.397013 C377.156914,374.288387 375.081738,371.382345 373.55957,368.84375 C373.330547,368.576897 373.086162,368.296073 372.827812,368.001277 C371.734365,366.752238 370.41748,365.269878 369.196953,363.675746 C365.434824,358.757829 362.591582,352.775296 370.068359,349.283854 C371.048691,348.902436 372.123984,348.725 373.280273,348.725 C377.458555,348.725 382.667441,351.044245 388.036924,354.449064 C388.972568,355.042846 389.916592,355.67016 390.856426,356.32402 C391.398262,356.699849 391.938701,357.084061 392.480537,357.475259 C394.758203,359.126673 397.020508,360.912212 399.203213,362.736871 C407.346113,369.547906 414.37043,376.919193 416.850586,380.020833 C428.599209,397.788204 426.127432,412.776673 417.093574,422.177997" id="Fill-20" fill="#D3EBE5"></path>
            <path d="M1232.49382,459.589092 L1196.58322,255.255243 C1198.38888,255.170018 1200.20291,255.126707 1202.03091,255.126707 C1261.90937,255.126707 1310.45256,301.831547 1310.45256,359.44522 C1310.45256,406.882159 1277.54301,446.92406 1232.49382,459.589092 M1129.73072,437.183232 C1107.56293,418.082993 1093.60926,390.330296 1093.60926,359.44522 C1093.60926,318.42253 1118.21671,282.931099 1154.00721,265.891635 L1129.73072,437.183232" id="Fill-21" fill="#F0F4F7"></path>
            <path d="M1202.03091,463.763733 C1174.25204,463.763733 1148.91563,453.714138 1129.73072,437.183232 L1154.00721,265.891635 C1166.94703,259.731665 1181.35596,255.980357 1196.58322,255.255243 L1232.49382,459.589092 C1222.82875,462.306521 1212.60788,463.763733 1202.03091,463.763733" id="Fill-22" fill="#D3EBE5"></path>
            <path d="M40.5259766,912.663342 C42.0230078,912.663342 42.6332715,910.807947 40.7968945,910.807947 C39.3012598,910.807947 38.6895996,912.663342 40.5259766,912.663342" id="Fill-23" fill="#6E498C"></path>
            <path d="M345.67457,990.601145 C326.108428,990.601145 306.98916,987.154411 288.315371,980.265137 C277.80124,974.880577 267.285713,969.496017 256.771582,964.112854 C229.654648,945.923548 208.313574,918.126142 202.240264,885.529576 C196.826094,856.469159 204.554238,826.856874 222.191836,803.6281 L201.947002,855.046875 L336.552734,855.046875 L304.162676,756.287564 C308.683096,755.298392 313.204912,754.30922 317.725332,753.320048 C323.184189,752.79752 328.608135,752.536255 333.998564,752.536255 C343.334062,752.536255 352.564824,753.320048 361.695039,754.887634 L336.009502,888.578125 L470.615234,888.578125 L458.636191,813.729389 C467.820869,826.827534 474.458359,841.639964 477.432871,857.606427 C483.404238,889.658111 473.388652,922.381816 451.722197,946.471225 C436.367852,963.048237 417.983135,974.971391 396.568047,982.244878 C385.0275,984.768104 373.48835,987.291331 361.947803,989.815954 C356.488945,990.338483 351.065,990.601145 345.67457,990.601145" id="Fill-24" fill="#DDD0DE"></path>
            <path d="M336.552734,855.046875 L201.947002,855.046875 L222.191836,803.6281 C224.008662,801.237602 225.928828,798.912768 227.950937,796.664777 C243.305283,780.089163 261.69,768.164612 283.105088,760.891125 C290.125215,759.35707 297.143945,757.823016 304.162676,756.287564 L336.552734,855.046875" id="Fill-25" fill="#AEC8CB"></path>
            <path d="M470.615234,888.578125 L336.009502,888.578125 L361.695039,754.887634 C371.703643,756.607508 381.592148,759.269051 391.357764,762.870866 C401.871895,768.255426 412.387422,773.639986 422.901553,779.024546 C436.736523,788.304319 449.068877,800.086362 458.636191,813.729389 L470.615234,888.578125" id="Fill-26" fill="#AEC8CB"></path>
            <polyline id="Fill-27" fill="#D1EAE6" points="686.539648 889.821576 676.558975 886.096812 666.578301 867.723085 656.597627 864.174361 652.08 854.194622 705.552783 852.606079 696.520322 867.784559 686.539648 889.821576"></polyline>
            <polyline id="Fill-28" fill="#EEF0F5" points="1077.05394 889.279487 1066.82329 854.388824 1056.79374 883.79573 1046.51003 850.514568 1036.49305 876.326645 1026.3029 866.450294 1016.21889 878.71854 1006.0846 886.190421 995.852559 888.504077 985.997568 857.989242 1002.08926 855.157249 999.211104 843.880969 1195.1239 838.0619 1179.22492 847.306745 1167.6746 882.501983 1158.36982 851.278801 1147.67555 886.81494 1137.73258 876.738799 1127.82452 845.004266 1117.64555 843.873983 1107.43585 859.785958 1097.2862 848.333639 1087.14214 866.990986 1077.05394 889.279487"></polyline>
            <path d="M626.659795,887.941031 L616.680518,855.246665 L643.786279,854.440518 L636.639072,885.518398 L626.659795,887.941031 M985.997568,857.989242 L985.894229,857.672092 L980.568037,844.435632 L999.211104,843.880969 L1002.08926,855.157249 L985.997568,857.989242" id="Fill-29" fill="#D1EAE6"></path>
            <polyline id="Fill-30" fill="#EEF0F5" points="926.054873 885.194263 921.054062 869.420604 937.38874 866.545299 936.028564 869.48627 926.054873 885.194263"></polyline>
            <path d="M806.304941,885.051755 L796.324268,859.112539 L786.34499,866.821932 L778.267725,850.446108 L829.115117,848.934408 L826.263496,854.993784 L816.282822,874.334329 L806.304941,885.051755 M921.054063,869.420604 L916.078389,853.730773 L911.277275,846.493612 L950.373252,845.332592 L946.006445,847.90891 L937.38874,866.545299 L921.054063,869.420604 M746.423691,862.971427 L739.439873,851.598745 L773.373047,850.59141 L766.385039,859.94104 L756.402969,861.117428 L746.423691,862.971427 M866.184795,862.826125 L859.696729,848.02627 L878.436152,847.47021 L876.165469,851.727281 L866.184795,862.826125 M846.219258,860.622842 L841.73375,848.559975 L852.225537,848.248414 L846.219258,860.622842 M965.953828,858.768844 L957.820703,845.111845 L971.377773,844.708073 L965.953828,858.768844 M726.462344,857.209641 L716.480273,855.336082 L709.879092,852.477543 L731.577666,851.832066 L726.462344,857.209641 M643.786279,854.440518 L646.61835,842.130358 L652.08,854.194622 L643.786279,854.440518 M705.552783,852.606079 L706.500996,851.013345 L709.879092,852.477543 L705.552783,852.606079 M731.577666,851.832066 L736.443018,846.718551 L739.439873,851.598745 L731.577666,851.832066 M773.373047,850.59141 L776.364316,846.58722 L778.267725,850.446108 L773.373047,850.59141 M829.115117,848.934408 L836.241377,833.792254 L841.73375,848.559975 L829.115117,848.934408 M852.225537,848.248414 L856.202725,840.054215 L859.696729,848.02627 L852.225537,848.248414 M878.436152,847.47021 L886.146143,833.009858 L896.12542,842.893194 L906.103301,838.697596 L911.277275,846.493612 L878.436152,847.47021 M950.373252,845.332592 L955.98293,842.024176 L957.820703,845.111845 L950.373252,845.332592 M971.377773,844.708073 L975.928916,832.909264 L980.568037,844.435632 L971.377773,844.708073" id="Fill-31" fill="#D1EAE6"></path>
            <polyline id="Fill-32" fill="#6E498C" points="182.938057 104.247259 188.058965 105.633217 193.178477 107.02197 207.609746 104.247259"></polyline>
            <polyline id="Fill-33" fill="#6E498C" points="185.731025 113.473941 189.691455 118.823573 195.2746 113.473941"></polyline>
            <polyline id="Fill-34" fill="#311C43" points="216.076631 99.1966146 229.023438 80.3352865 207.609746 93.8399974 200.801885 99.1966146"></polyline>
            <path d="M220.644531,156.086572 C241.435391,138.855701 262.227646,121.624829 283.018506,104.392561 C284.192949,103.420155 281.906904,98.3275964 283.018506,97.4068841 C262.227646,114.639152 241.435391,131.870023 220.644531,149.100895 C219.470088,150.074698 221.756133,155.165859 220.644531,156.086572" id="Fill-35" fill="#6E498C"></path>
            <polyline id="Fill-36" fill="#6E498C" points="282.943096 55.9105651 255.943467 89.32725 257.029932 90.204651 284.029561 56.7893633"></polyline>
            <polyline id="Fill-37" fill="#6E498C" points="209.36373 55.0611068 219.861104 80.815901 221.154248 80.289181 210.656875 54.5329896"></polyline>
        </g>
    </g>
</svg>