<?xml version="1.0" standalone="no"?>
<!DOCTYPE svg PUBLIC "-//W3C//DTD SVG 20010904//EN"
 "http://www.w3.org/TR/2001/REC-SVG-20010904/DTD/svg10.dtd">
<svg version="1.0" xmlns="http://www.w3.org/2000/svg"
 width="512.000000pt" height="512.000000pt" viewBox="0 0 512.000000 512.000000"
 preserveAspectRatio="xMidYMid meet">
<metadata>
Created by potrace 1.11, written by Peter Selinger 2001-2013
</metadata>
<g transform="translate(0.000000,512.000000) scale(0.100000,-0.100000)"
fill="#000000" stroke="none">
<path d="M4421 4529 c-172 -10 -792 -57 -841 -64 -19 -3 -206 -21 -414 -40
-208 -20 -445 -45 -525 -56 -80 -11 -265 -35 -411 -54 -146 -19 -353 -48 -460
-65 -107 -17 -296 -46 -420 -65 -481 -73 -1140 -195 -1315 -243 l-30 -8 -3
-777 c-2 -637 0 -777 11 -777 13 0 249 42 315 56 l32 7 -5 -149 c-9 -215 -23
-371 -40 -437 -8 -32 -44 -115 -79 -185 -38 -76 -69 -151 -76 -187 -6 -33 -23
-104 -36 -157 -39 -156 -32 -372 19 -568 13 -52 28 -125 31 -162 13 -116 63
-163 263 -242 118 -48 160 -73 445 -269 l126 -87 587 0 c504 0 595 2 643 16
32 8 152 46 267 84 116 37 266 80 335 95 69 14 174 38 233 52 60 14 111 23
113 20 3 -3 -20 -55 -51 -117 -31 -62 -55 -113 -53 -114 2 -2 66 3 143 10
1276 116 1808 165 1848 170 l47 6 0 458 0 457 -40 108 c-83 223 -214 464 -310
569 -72 79 -195 157 -415 266 -209 103 -342 160 -510 220 -66 23 -125 48 -132
54 -13 12 -35 208 -54 490 -10 150 -10 180 2 187 8 5 97 9 199 9 175 0 321
-12 540 -45 269 -40 327 -46 354 -35 60 23 295 4 343 -27 l23 -15 0 260 0 261
-75 47 c-42 25 -80 55 -86 66 -15 28 7 119 41 170 16 24 30 48 30 54 0 23
-228 117 -520 214 -181 60 -230 81 -230 99 0 5 15 19 34 30 18 11 49 44 68 73
54 81 106 140 155 174 24 18 54 47 66 65 13 20 47 47 80 64 31 17 57 33 57 38
0 8 -122 7 -319 -4z m-918 -1619 c5 -58 16 -192 26 -298 9 -107 14 -195 11
-197 -4 -2 -52 10 -108 27 -65 20 -103 37 -106 47 -2 9 -6 129 -8 266 l-3 250
60 6 c33 3 74 6 90 5 l30 -1 8 -105z m-342 -20 c8 -118 11 -360 4 -360 -7 0
-368 110 -371 113 -5 4 -44 229 -44 249 0 12 7 18 23 18 12 0 47 7 77 16 107
30 265 63 290 60 12 -1 16 -22 21 -96z m-544 -111 c8 -45 12 -84 9 -86 -3 -3
-58 8 -123 24 -105 26 -118 32 -121 52 -2 12 4 31 14 42 13 14 14 19 4 19 -9
0 -11 3 -4 10 13 13 187 39 198 29 5 -4 15 -45 23 -90z m-1157 -44 l75 -6 54
-155 c30 -85 51 -157 48 -161 -7 -6 -73 40 -185 129 -42 33 -101 72 -132 87
-30 14 -58 31 -62 36 -10 13 -10 69 -1 78 3 4 34 5 67 2 34 -2 95 -7 136 -10z
m490 -55 c233 -28 292 -38 302 -48 10 -10 86 -337 143 -615 19 -93 40 -177 45
-187 22 -41 73 -46 113 -12 32 28 22 100 -89 585 -25 109 -44 201 -41 203 5 6
196 -35 218 -47 11 -5 22 -45 37 -131 31 -176 60 -382 76 -543 16 -156 26
-175 91 -175 59 0 69 20 61 132 -8 121 -28 284 -63 495 -15 90 -24 165 -21
168 6 6 339 -81 349 -92 4 -5 15 -246 24 -538 11 -336 22 -539 29 -555 22 -49
106 -52 128 -5 8 19 7 153 -6 536 -9 281 -14 514 -11 517 7 8 194 -39 210 -53
7 -6 22 -84 34 -183 12 -95 37 -272 55 -393 36 -237 44 -259 98 -259 33 0 78
39 78 68 0 10 -20 156 -44 323 -24 167 -46 324 -48 349 -4 55 -11 56 172 -12
269 -100 306 -127 439 -316 278 -398 498 -793 547 -984 16 -60 16 -61 -8 -83
-38 -36 -137 -65 -265 -76 -154 -14 -249 -37 -413 -99 -74 -28 -196 -69 -270
-90 -77 -23 -182 -63 -245 -94 -155 -77 -170 -82 -313 -111 -70 -15 -143 -31
-162 -35 -98 -25 -258 -40 -326 -30 -38 5 -72 10 -76 10 -20 0 -5 38 24 61 29
24 32 33 39 101 5 52 16 92 37 134 16 32 33 75 37 94 12 55 33 84 101 135 52
39 61 51 54 65 -5 10 -72 78 -148 151 -147 142 -338 353 -439 485 -102 135
-165 239 -238 397 -36 78 -99 138 -259 247 -75 51 -140 97 -145 104 -15 18
-161 411 -161 434 0 3 19 2 43 -2 23 -3 116 -15 207 -26z"/>
</g>
</svg>
