<?xml version="1.0" standalone="no"?>
<!DOCTYPE svg PUBLIC "-//W3C//DTD SVG 20010904//EN"
 "http://www.w3.org/TR/2001/REC-SVG-20010904/DTD/svg10.dtd">
<svg version="1.0" xmlns="http://www.w3.org/2000/svg"
 width="1112.000000pt" height="1112.000000pt" viewBox="0 0 1112.000000 1112.000000"
 preserveAspectRatio="xMidYMid meet">
<metadata>
Created by potrace 1.14, written by Peter Selinger 2001-2017
</metadata>
<g transform="translate(0.000000,1112.000000) scale(0.100000,-0.100000)"
fill="#000000" stroke="none">
<path d="M116 11100 c-51 -25 -94 -74 -106 -121 -7 -24 -9 -1897 -8 -5441 l3
-5405 29 -41 c16 -23 45 -52 65 -65 l36 -22 5411 -3 c4779 -2 5416 0 5447 13
48 20 105 80 117 124 15 54 14 10777 -1 10837 -14 56 -74 119 -126 133 -26 8
-1710 11 -5433 11 -5322 -1 -5396 -1 -5434 -20z"/>
</g>
</svg>
